# File created by Blade
# Date/Time:  Wed Sep 24 19:25:39 2014
# Frame Rate: 120.000 fps
#------------------------------------------------------
:FULLY-SPECIFIED
:DEGREES
1062
root -15.414995 32.743217 -3.603201 11.777194 -1.239403 4.043052
Spine -16.719405 11.044898 1.487900
Head 12.081386 -7.376537 1.571387
LeftShoulder -15.927976 29.312004 7.061091
LeftArm 11.761410 19.427877 -76.145728
LeftForeArm 7.260470 0.000000 37.768988
LeftHand -26.196732 -0.000000 -2.435145
LeftHandThumb1 -26.253704 0.000000 33.147579
RightShoulder -19.664190 5.673326 -20.197517
RightArm -12.015491 -23.947283 78.508989
RightForeArm -10.157738 -0.000000 76.049616
RightHand 0.126253 -0.000000 -22.394793
RightHandThumb1 -24.326973 -0.000000 -32.862282
LeftUpLeg -41.376227 34.315099 -7.346854
LeftLeg 102.571187 -0.000000 -0.000000
LeftFoot 33.838092 16.357293 -23.834726
LeftToeBase 15.068134 -0.000000 -0.000000
RightUpLeg -11.457629 -2.377686 2.997828
RightLeg 9.556461 -0.000000 -0.000000
RightFoot -12.924371 -9.913404 -13.230969
RightToeBase -2.332524 -0.000000 0.000000
1063
root -15.404623 32.742579 -3.624426 11.783505 -1.132499 4.099994
Spine -16.641013 11.129534 1.318599
Head 12.029399 -7.494052 1.629272
LeftShoulder -15.971626 29.310709 7.099544
LeftArm 11.706355 19.459567 -76.181332
LeftForeArm 7.082757 -0.000000 37.759924
LeftHand -26.206951 -0.000000 -2.644117
LeftHandThumb1 -26.253704 0.000000 33.147579
RightShoulder -19.607345 5.787035 -20.247711
RightArm -11.856084 -23.484169 78.353631
RightForeArm -9.770240 -0.000000 77.130044
RightHand -0.030352 -0.000000 -21.885845
RightHandThumb1 -24.326973 -0.000000 -32.862282
LeftUpLeg -41.189534 34.083124 -7.430509
LeftLeg 102.478910 -0.000000 -0.000000
LeftFoot 33.845607 16.330264 -23.750977
LeftToeBase 14.933744 -0.000000 -0.000000
RightUpLeg -11.720224 -2.535103 2.967003
RightLeg 10.021772 -0.000000 -0.000000
RightFoot -13.087253 -9.989764 -13.282311
RightToeBase -2.325225 -0.000000 0.000000
1064
root -15.400655 32.739826 -3.645395 11.777978 -1.016879 4.086556
Spine -16.537652 11.215871 1.232605
Head 11.949462 -7.615453 1.675111
LeftShoulder -16.034992 29.336334 7.110319
LeftArm 11.717616 19.499729 -76.210083
LeftForeArm 6.992538 0.000000 37.655353
LeftHand -26.158156 0.000000 -2.532494
LeftHandThumb1 -26.253704 0.000000 33.147579
RightShoulder -19.527653 5.982862 -20.304471
RightArm -11.756158 -23.076179 78.153966
RightForeArm -9.320298 0.000000 78.260606
RightHand -0.189886 0.000000 -21.355896
RightHandThumb1 -24.326973 -0.000000 -32.862282
LeftUpLeg -40.985720 33.855302 -7.410185
LeftLeg 102.420709 -0.000000 -0.000000
LeftFoot 33.717162 16.413142 -23.881426
LeftToeBase 15.572992 -0.000000 -0.000000
RightUpLeg -11.938221 -2.564291 3.003442
RightLeg 10.413745 -0.000000 -0.000000
RightFoot -13.246310 -10.030941 -13.124439
RightToeBase -2.164204 -0.000000 0.000000
1065
root -15.396739 32.735184 -3.667542 11.765370 -0.914343 4.103768
Spine -16.422765 11.334069 1.085618
Head 11.848527 -7.767890 1.757875
LeftShoulder -15.983613 29.262709 7.201682
LeftArm 11.555183 19.477200 -76.304252
LeftForeArm 7.012395 -0.000000 37.627828
LeftHand -26.188857 -0.000000 -2.555291
LeftHandThumb1 -26.253704 0.000000 33.147579
RightShoulder -19.467423 6.131504 -20.333584
RightArm -11.587422 -22.609935 77.946437
RightForeArm -8.991124 -0.000000 79.382429
RightHand -0.338180 -0.000000 -21.013520
RightHandThumb1 -24.326973 -0.000000 -32.862282
LeftUpLeg -40.768112 33.630322 -7.404037
LeftLeg 102.363235 -0.000000 -0.000000
LeftFoot 33.609280 16.609740 -24.282719
LeftToeBase 15.778880 -0.000000 -0.000000
RightUpLeg -12.187859 -2.551733 3.007756
RightLeg 10.896559 -0.000000 -0.000000
RightFoot -13.374928 -10.271322 -13.155184
RightToeBase -2.131949 -0.000000 0.000000
1066
root -15.386004 32.731178 -3.693470 11.805112 -0.885496 4.205678
Spine -16.376806 11.533960 0.775279
Head 11.753780 -7.937303 1.930027
LeftShoulder -15.922795 29.245308 7.331456
LeftArm 11.476532 19.512001 -76.358065
LeftForeArm 6.930937 -0.000000 37.583419
LeftHand -26.228184 -0.000000 -2.402450
LeftHandThumb1 -26.253704 0.000000 33.147579
RightShoulder -19.479310 6.214904 -20.331349
RightArm -11.303784 -22.162662 77.709289
RightForeArm -8.712695 -0.000000 80.499082
RightHand -0.608040 -0.000000 -20.462062
RightHandThumb1 -24.326973 -0.000000 -32.862282
LeftUpLeg -40.621536 33.453748 -7.568448
LeftLeg 102.282046 -0.000000 -0.000000
LeftFoot 33.431653 16.758333 -24.464674
LeftToeBase 16.301186 -0.000000 -0.000000
RightUpLeg -12.524637 -2.449957 2.895390
RightLeg 11.434167 -0.000000 -0.000000
RightFoot -13.555043 -10.535043 -13.150974
RightToeBase -2.090170 -0.000000 0.000000
1067
root -15.380951 32.724393 -3.717308 11.754115 -0.765723 4.221729
Spine -16.182736 11.675193 0.645611
Head 11.596971 -8.107510 2.008355
LeftShoulder -15.895695 29.256921 7.378287
LeftArm 11.489218 19.533436 -76.390958
LeftForeArm 6.870749 0.000000 37.495534
LeftHand -26.095535 0.000000 -2.662762
LeftHandThumb1 -26.253704 0.000000 33.147579
RightShoulder -19.417889 6.473401 -20.389443
RightArm -11.189978 -21.593693 77.501160
RightForeArm -8.535017 -0.000000 81.636997
RightHand -0.822017 -0.000000 -19.865713
RightHandThumb1 -24.326973 -0.000000 -32.862282
LeftUpLeg -40.360761 33.230116 -7.568386
LeftLeg 102.211594 -0.000000 -0.000000
LeftFoot 33.596659 16.557447 -24.003313
LeftToeBase 16.057876 -0.000000 -0.000000
RightUpLeg -12.802890 -2.490494 2.899261
RightLeg 12.068246 -0.000000 -0.000000
RightFoot -13.704872 -10.863080 -13.305358
RightToeBase -2.138354 -0.000000 0.000000
1068
root -15.371883 32.717472 -3.740636 11.705651 -0.619071 4.251729
Spine -15.999878 11.816651 0.513692
Head 11.463303 -8.317840 2.034761
LeftShoulder -15.810510 29.203106 7.464289
LeftArm 11.418372 19.565653 -76.481147
LeftForeArm 6.848695 -0.000000 37.395546
LeftHand -26.289648 -0.000000 -2.592083
LeftHandThumb1 -26.253704 0.000000 33.147579
RightShoulder -19.427224 6.558400 -20.460793
RightArm -10.840590 -21.074826 77.233739
RightForeArm -8.342764 -0.000000 82.693465
RightHand -0.960783 -0.000000 -19.276967
RightHandThumb1 -24.326973 -0.000000 -32.862282
LeftUpLeg -40.109491 32.974450 -7.586439
LeftLeg 102.149007 -0.000000 -0.000000
LeftFoot 33.666303 16.573888 -23.913256
LeftToeBase 15.612705 -0.000000 -0.000000
RightUpLeg -13.047196 -2.517607 2.888819
RightLeg 12.597206 -0.000000 -0.000000
RightFoot -13.899395 -11.007377 -13.173436
RightToeBase -2.025917 -0.000000 0.000000
1069
root -15.363694 32.708910 -3.768402 11.711143 -0.518637 4.305209
Spine -15.881253 11.963181 0.323070
Head 11.315420 -8.452170 2.160222
LeftShoulder -15.756228 29.141710 7.566631
LeftArm 11.312726 19.646447 -76.541612
LeftForeArm 6.723722 -0.000000 37.308898
LeftHand -26.245790 -0.000000 -2.610660
LeftHandThumb1 -26.253704 0.000000 33.147579
RightShoulder -19.369137 6.756895 -20.555912
RightArm -10.613167 -20.521440 77.034933
RightForeArm -8.280528 -0.000000 83.751708
RightHand -1.161154 0.000000 -18.675132
RightHandThumb1 -24.326973 -0.000000 -32.862282
LeftUpLeg -39.919128 32.719917 -7.662319
LeftLeg 102.106080 -0.000000 -0.000000
LeftFoot 33.756926 16.522917 -23.761684
LeftToeBase 15.378567 -0.000000 -0.000000
RightUpLeg -13.416370 -2.445712 2.842637
RightLeg 13.274957 -0.000000 -0.000000
RightFoot -14.097061 -11.322268 -13.116074
RightToeBase -1.977382 -0.000000 0.000000
1070
root -15.353204 32.699130 -3.794328 11.653863 -0.424896 4.381676
Spine -15.667522 11.998325 0.164590
Head 11.173952 -8.481056 2.170768
LeftShoulder -15.841959 29.153056 7.583881
LeftArm 11.312419 19.702606 -76.602854
LeftForeArm 6.659770 -0.000000 37.168762
LeftHand -26.289168 0.000000 -2.616410
LeftHandThumb1 -26.253704 0.000000 33.147579
RightShoulder -19.184158 7.050065 -20.648188
RightArm -10.384068 -19.967066 76.846664
RightForeArm -8.187239 -0.000000 84.785623
RightHand -1.423282 -0.000000 -18.239091
RightHandThumb1 -24.326973 -0.000000 -32.862282
LeftUpLeg -39.639778 32.469022 -7.723880
LeftLeg 102.032591 -0.000000 -0.000000
LeftFoot 33.506370 16.757675 -24.194699
LeftToeBase 15.156754 -0.000000 -0.000000
RightUpLeg -13.748726 -2.347359 2.763163
RightLeg 14.014028 -0.000000 -0.000000
RightFoot -14.313517 -11.688161 -13.089975
RightToeBase -1.936083 -0.000000 0.000000
1071
root -15.345848 32.686647 -3.821178 11.596533 -0.297557 4.442292
Spine -15.448702 12.098898 0.007259
Head 11.006201 -8.586839 2.220336
LeftShoulder -15.773325 28.939871 7.720839
LeftArm 11.073090 19.757736 -76.756594
LeftForeArm 6.667863 -0.000000 36.997918
LeftHand -26.211801 -0.000000 -2.563555
LeftHandThumb1 -26.253704 0.000000 33.147579
RightShoulder -19.081477 7.254268 -20.760808
RightArm -10.071437 -19.383970 76.645712
RightForeArm -8.008345 -0.000000 85.794810
RightHand -1.632354 -0.000000 -17.647873
RightHandThumb1 -24.326973 -0.000000 -32.862282
LeftUpLeg -39.375451 32.194141 -7.749244
LeftLeg 101.975141 -0.000000 -0.000000
LeftFoot 33.406856 16.893433 -24.295872
LeftToeBase 15.788192 -0.000000 -0.000000
RightUpLeg -14.097249 -2.257303 2.710662
RightLeg 14.789661 -0.000000 -0.000000
RightFoot -14.534034 -12.077456 -13.051377
RightToeBase -1.881525 -0.000000 0.000000
1072
root -15.336889 32.673531 -3.846642 11.543206 -0.186921 4.530877
Spine -15.244657 12.216113 -0.208614
Head 10.836824 -8.682811 2.316935
LeftShoulder -15.701576 28.985716 7.804330
LeftArm 11.061521 19.783771 -76.804952
LeftForeArm 6.640164 0.000000 36.936856
LeftHand -26.226872 -0.000000 -2.868380
LeftHandThumb1 -26.253704 0.000000 33.147579
RightShoulder -19.007099 7.473666 -20.858356
RightArm -9.753672 -18.858675 76.441460
RightForeArm -7.825076 -0.000000 86.770486
RightHand -1.808863 -0.000000 -17.275873
RightHandThumb1 -24.326973 -0.000000 -32.862282
LeftUpLeg -39.095769 31.952361 -7.809898
LeftLeg 101.891469 -0.000000 -0.000000
LeftFoot 33.429978 16.909965 -24.325206
LeftToeBase 15.662230 -0.000000 -0.000000
RightUpLeg -14.444589 -2.117393 2.621841
RightLeg 15.556931 -0.000000 -0.000000
RightFoot -14.747236 -12.499143 -12.957477
RightToeBase -1.840654 -0.000000 0.000000
1073
root -15.323410 32.658137 -3.869458 11.442843 -0.057065 4.661641
Spine -14.975074 12.291025 -0.436618
Head 10.668313 -8.733639 2.413640
LeftShoulder -15.690037 29.060478 7.849460
LeftArm 11.135934 19.796729 -76.833636
LeftForeArm 6.524903 -0.000000 36.798618
LeftHand -26.342797 0.000000 -2.730979
LeftHandThumb1 -26.253704 0.000000 33.147579
RightShoulder -18.901496 7.735234 -20.976883
RightArm -9.439805 -18.339553 76.251566
RightForeArm -7.605953 0.000000 87.708416
RightHand -2.052890 -0.000000 -16.847316
RightHandThumb1 -24.326973 -0.000000 -32.862282
LeftUpLeg -38.733492 31.677333 -7.891879
LeftLeg 101.792739 -0.000000 -0.000000
LeftFoot 33.385341 16.995339 -24.413975
LeftToeBase 15.824638 -0.000000 -0.000000
RightUpLeg -14.774166 -2.071366 2.500468
RightLeg 16.389435 -0.000000 -0.000000
RightFoot -14.913453 -12.971689 -13.083800
RightToeBase -1.995376 -0.000000 0.000000
